<?xml version="1.0" standalone="no"?>
<!DOCTYPE svg PUBLIC "-//W3C//DTD SVG 20010904//EN"
 "http://www.w3.org/TR/2001/REC-SVG-20010904/DTD/svg10.dtd">
<svg version="1.0" xmlns="http://www.w3.org/2000/svg"
 width="500.000000pt" height="500.000000pt" viewBox="0 0 500.000000 500.000000"
 preserveAspectRatio="xMidYMid meet">

<g transform="translate(0.000000,500.000000) scale(0.100000,-0.100000)"
fill="#000000" stroke="none">
<path d="M2225 4564 c-312 -42 -610 -153 -870 -324 -145 -96 -229 -165 -350
-291 -286 -295 -470 -646 -550 -1049 -37 -180 -46 -482 -21 -665 65 -467 262
-869 584 -1194 365 -367 812 -573 1334 -613 617 -47 1235 197 1667 658 284
303 474 699 536 1119 20 133 23 411 6 545 -62 479 -270 902 -607 1232 -119
117 -197 180 -324 264 -267 175 -583 289 -902 323 -130 15 -379 12 -503 -5z
m-291 -1199 c122 -34 221 -104 271 -190 58 -98 69 -271 25 -387 -31 -82 -104
-159 -193 -203 -98 -48 -186 -65 -344 -65 l-133 0 -2 -287 -3 -288 -135 0
-135 0 -3 422 -2 422 287 3 c269 3 291 4 328 24 55 29 85 75 85 133 0 66 -28
111 -86 141 -48 25 -52 25 -331 28 l-283 3 0 123 c0 84 4 126 13 135 20 21
562 9 641 -14z m1073 -798 l296 -739 -99 -250 c-54 -137 -105 -252 -113 -255
-7 -3 -17 0 -22 8 -5 8 -68 161 -140 342 l-131 327 -102 0 -102 0 -21 -50 -21
-50 -206 0 c-168 0 -208 3 -212 14 -9 23 548 1397 564 1394 8 -2 135 -306 309
-741z m757 58 c152 -377 276 -695 276 -706 0 -19 -7 -19 -212 -17 l-213 3
-178 440 c-119 296 -176 448 -173 465 9 50 199 500 211 500 7 0 132 -298 289
-685z"/>
<path d="M2669 2184 c-44 -103 -47 -94 27 -94 49 0 65 3 61 13 -3 6 -13 32
-22 57 -30 77 -41 81 -66 24z"/>
</g>
</svg>
