<?xml version="1.0" standalone="no"?>
<!DOCTYPE svg PUBLIC "-//W3C//DTD SVG 20010904//EN"
 "http://www.w3.org/TR/2001/REC-SVG-20010904/DTD/svg10.dtd">
<svg version="1.0" xmlns="http://www.w3.org/2000/svg"
 width="50.000000pt" height="50.000000pt" viewBox="0 0 50.000000 50.000000"
 preserveAspectRatio="xMidYMid meet">

<g transform="translate(0.000000,50.000000) scale(0.100000,-0.100000)"
fill="#000000" stroke="none">
<path d="M152 429 c-140 -71 -138 -291 3 -359 68 -33 160 -26 211 16 69 55 79
77 79 164 0 72 -2 81 -31 116 -52 64 -77 78 -152 82 -54 2 -76 -1 -110 -19z
m68 -109 c16 -31 3 -60 -31 -67 -24 -4 -29 -10 -29 -34 0 -19 -5 -29 -15 -29
-11 0 -15 12 -15 44 0 43 1 45 33 48 17 2 32 8 32 13 0 6 -15 11 -32 13 -50 5
-44 32 7 32 29 0 42 -5 50 -20z m83 -59 c21 -51 27 -78 22 -100 -9 -40 -21
-39 -35 3 -10 33 -13 34 -47 29 -33 -6 -36 -4 -29 13 5 10 17 43 28 72 12 28
24 52 27 52 3 0 19 -31 34 -69z m64 37 c6 -18 18 -50 27 -70 l16 -38 -25 0
c-35 0 -71 77 -53 115 15 33 23 31 35 -7z"/>
</g>
</svg>
